<?xml version='1.0' encoding='UTF-8' standalone='no'?>
<!-- Created with Fritzing (http://www.fritzing.org/) -->
<svg xmlns="http://www.w3.org/2000/svg" baseProfile="tiny" x="0in" viewBox="0 0 70.6867 76.3135" y="0in" width="0.98176in" xmlns:svg="http://www.w3.org/2000/svg" version="1.2"  height="1.05991in">
 <g transform="matrix(-1, 0, 0, 1, 70.6867, 0)">
  <g partID="854156522">
   <g id="silkscreen0">
    <rect fill="none" x="0.288" y="0.288" width="70.1107" stroke="black" stroke-width="0.576" height="75.7375"/>
   </g>
  </g>
  <g partID="854156520">
   <g id="board">
    <rect fill="none" x="0.288" y="0.288" id="boardoutline" width="70.1107" stroke="black" stroke-width="0.5" height="75.7375" fill-opacity="0.5"/>
   </g>
  </g>
  <g partID="854156522">
   <g id="silkscreen0">
    <rect fill="none" x="0.288" y="0.288" width="70.1107" stroke="black" stroke-width="0.576" height="75.7375"/>
   </g>
  </g>
  <g partID="854157651">
   <g transform="translate(8.00028,11.6358)">
    <g id="silkscreen0" flipped="1">
     <g transform="matrix(-1, 0, 0, 1, 10.08, 0)">
      <g>
       <g>
        <g>
         <line y1="1.44" y2="59.04" stroke="black" x1="1.44" x2="1.44" stroke-width="0.72"/>
         <line y1="59.04" y2="59.04" stroke="black" x1="1.44" x2="8.64" stroke-width="0.72"/>
         <line y1="59.04" y2="1.44" stroke="black" x1="8.64" x2="8.64" stroke-width="0.72"/>
         <line y1="1.44" y2="1.44" stroke="black" x1="8.64" x2="1.44" stroke-width="0.72"/>
         <line y1="3.96" y2="1.44" stroke="black" x1="1.44" x2="3.96" stroke-width="0.36"/>
         <!-- 120 -->
        </g>
       </g>
      </g>
     </g>
    </g>
   </g>
  </g>
  <g partID="854157650">
   <g transform="translate(8.00028,11.6358)">
    <g id="copper0" flipped="1">
     <g transform="matrix(-1, 0, 0, 1, 10.08, 0)">
      <g>
       <g>
        <g>
         <g id="copper0">
          <circle fill="white" id="connector0pin" cx="5.04" cy="5.04" stroke="white" r="2.088" stroke-width="2.16"/>
          <circle fill="white" id="connector1pin" cx="5.04" cy="12.24" stroke="white" r="2.088" stroke-width="2.16"/>
          <circle fill="white" id="connector2pin" cx="5.04" cy="19.44" stroke="white" r="2.088" stroke-width="2.16"/>
          <circle fill="white" id="connector3pin" cx="5.04" cy="26.64" stroke="white" r="2.088" stroke-width="2.16"/>
          <circle fill="white" id="connector4pin" cx="5.04" cy="33.84" stroke="white" r="2.088" stroke-width="2.16"/>
          <circle fill="white" id="connector5pin" cx="5.04" cy="41.04" stroke="white" r="2.088" stroke-width="2.16"/>
          <circle fill="white" id="connector6pin" cx="5.04" cy="48.24" stroke="white" r="2.088" stroke-width="2.16"/>
          <circle fill="white" id="connector7pin" cx="5.04" cy="55.44" stroke="white" r="2.088" stroke-width="2.16"/>
         </g>
        </g>
        <g>
         <circle fill="white" id="connector0pin" cx="5.04" cy="5.04" stroke="white" r="2.088" stroke-width="2.16"/>
         <circle fill="white" id="connector1pin" cx="5.04" cy="12.24" stroke="white" r="2.088" stroke-width="2.16"/>
         <circle fill="white" id="connector2pin" cx="5.04" cy="19.44" stroke="white" r="2.088" stroke-width="2.16"/>
         <circle fill="white" id="connector3pin" cx="5.04" cy="26.64" stroke="white" r="2.088" stroke-width="2.16"/>
         <circle fill="white" id="connector4pin" cx="5.04" cy="33.84" stroke="white" r="2.088" stroke-width="2.16"/>
         <circle fill="white" id="connector5pin" cx="5.04" cy="41.04" stroke="white" r="2.088" stroke-width="2.16"/>
         <circle fill="white" id="connector6pin" cx="5.04" cy="48.24" stroke="white" r="2.088" stroke-width="2.16"/>
         <circle fill="white" id="connector7pin" cx="5.04" cy="55.44" stroke="white" r="2.088" stroke-width="2.16"/>
        </g>
       </g>
      </g>
     </g>
    </g>
   </g>
  </g>
  <g partID="854156650">
   <g transform="translate(36.8003,26.0358)">
    <g id="copper0">
     <circle fill="white" id="connector0pin" cx="5.04" cy="5.04" stroke="white" r="2.088" stroke-width="2.16"/>
     <circle fill="white" id="connector1pin" cx="5.04" cy="12.24" stroke="white" r="2.088" stroke-width="2.16"/>
     <circle fill="white" id="connector2pin" cx="5.04" cy="19.44" stroke="white" r="2.088" stroke-width="2.16"/>
     <circle fill="white" id="connector3pin" cx="5.04" cy="26.64" stroke="white" r="2.088" stroke-width="2.16"/>
     <circle fill="white" id="connector0pin" cx="5.04" cy="5.04" stroke="white" r="2.088" stroke-width="2.16"/>
     <circle fill="white" id="connector1pin" cx="5.04" cy="12.24" stroke="white" r="2.088" stroke-width="2.16"/>
     <circle fill="white" id="connector2pin" cx="5.04" cy="19.44" stroke="white" r="2.088" stroke-width="2.16"/>
     <circle fill="white" id="connector3pin" cx="5.04" cy="26.64" stroke="white" r="2.088" stroke-width="2.16"/>
     <circle fill="white" id="connector4pin" cx="12.24" cy="26.64" stroke="white" r="2.088" stroke-width="2.16"/>
     <circle fill="white" id="connector5pin" cx="12.24" cy="19.44" stroke="white" r="2.088" stroke-width="2.16"/>
     <circle fill="white" id="connector6pin" cx="12.24" cy="12.24" stroke="white" r="2.088" stroke-width="2.16"/>
     <circle fill="white" id="connector7pin" cx="12.24" cy="5.04" stroke="white" r="2.088" stroke-width="2.16"/>
    </g>
   </g>
  </g>
 </g>
</svg>
